# xmcd
#
# Track frame offsets: 
#        150
#        30517
#        53542
#        75602
#        96872
#        124270
#        141932
#        161822
#        180937
#        199315
#        218620
#        243312
#        260337
#        283300
#        308112
#
# Disc length: 4201 seconds
#
# Revision: 2
# Processed by: cddbd v1.5.2PL0 Copyright (c) Steve Scherf et al.
# Submitted via: ExactAudioCopy v1.0b1
#
DISCID=d010670f
DTITLE=Vienna Art Orchestra - Swing and Affairs
DYEAR=2005
DGENRE=Jazz
TTITLE0=Hobo Ho
TTITLE1=Gnossienne No.1
TTITLE2=Straight Up and Down
TTITLE3=Round Midnight
TTITLE4=Incubi Et Succubi
TTITLE5=Der Wegweiser
TTITLE6=When Vienna Doesn't Waltz
TTITLE7=The Ballad of Sad Young Man
TTITLE8=Persischer Marsch
TTITLE9=Afro Blue
TTITLE10=Lisboa Reverie
TTITLE11=Off Beat Berlin on the Beat
TTITLE12=Tango From Obango
TTITLE13=Take the A-Train
TTITLE14=Niente Era Mio
EXTD=YEAR: 2005
EXTT0=
EXTT1=
EXTT2=
EXTT3=
EXTT4=
EXTT5=
EXTT6=
EXTT7=
EXTT8=
EXTT9=
EXTT10=
EXTT11=
EXTT12=
EXTT13=
EXTT14=
PLAYORDER=
